<?xml version="1.0" encoding="UTF-8"?>
<svg version="1.1" xmlns="http://www.w3.org/2000/svg" width="407" height="104">
<path d="M0 0 C134.31 0 268.62 0 407 0 C407 34.32 407 68.64 407 104 C272.69 104 138.38 104 0 104 C0 69.68 0 35.36 0 0 Z " fill="#FBFBFB" transform="translate(0,0)"/>
<path d="M0 0 C63.36 0 126.72 0 192 0 C192 25.74 192 51.48 192 78 C128.64 78 65.28 78 0 78 C0 52.26 0 26.52 0 0 Z " fill="#020202" transform="translate(12,12)"/>
<path d="M0 0 C134.31 0 268.62 0 407 0 C407 34.32 407 68.64 407 104 C272.69 104 138.38 104 0 104 C0 69.68 0 35.36 0 0 Z M10 11 C10 38.06 10 65.12 10 93 C138.04 93 266.08 93 398 93 C398 65.61 398 38.22 398 10 C348.71550854 9.97797485 299.4310217 9.95950291 250.14652673 9.94893467 C244.33458226 9.94768389 238.52263781 9.94638957 232.71069336 9.94506836 C231.55358775 9.94480605 230.39648215 9.94454374 229.20431273 9.94427348 C210.44236017 9.93991629 191.68041065 9.93202848 172.9184599 9.9228472 C153.68225417 9.91351201 134.44605005 9.90794468 115.20984215 9.90591151 C103.32988463 9.904536 91.44993572 9.90018392 79.56998085 9.89208353 C71.43525033 9.88681773 63.30052428 9.88519533 55.16579217 9.88649862 C50.46501884 9.88714226 45.7642606 9.88612158 41.06348991 9.88079453 C36.76736435 9.87596128 32.47126419 9.87566085 28.17513751 9.87910111 C26.61389131 9.87952687 25.05264358 9.87823051 23.49140043 9.87511682 C21.38322515 9.87115394 19.27514382 9.8732359 17.16697025 9.87695217 C15.99173583 9.87657245 14.81650141 9.87619273 13.60565382 9.8758015 C11.07199292 9.70379412 11.07199292 9.70379412 10 11 Z " fill="#010101" transform="translate(0,0)"/>
<path d="M0 0 C134.31 0 268.62 0 407 0 C407 34.32 407 68.64 407 104 C272.69 104 138.38 104 0 104 C0 69.68 0 35.36 0 0 Z M5.11710453 6.29909456 C3.16495372 9.27144302 3.57622552 12.71438291 3.59594727 16.15576172 C3.58908401 16.9869754 3.58222076 17.81818909 3.57514954 18.67459106 C3.55682613 21.42646294 3.5607274 24.17776761 3.56640625 26.9296875 C3.56184655 28.8415648 3.55654161 30.75344046 3.55052185 32.66531372 C3.54157945 36.67521821 3.54402605 40.68492368 3.55395508 44.69482422 C3.56543619 49.83206129 3.54525219 54.96861013 3.51603794 60.10575676 C3.49768369 64.05547447 3.49796703 68.00502711 3.50367546 71.95477676 C3.50382882 73.84859303 3.49777209 75.74242038 3.48538399 77.63619614 C3.47049331 80.28638468 3.48113707 82.93530029 3.49829102 85.58544922 C3.48862305 86.36692322 3.47895508 87.14839722 3.46899414 87.95355225 C3.51595559 91.42119751 3.82316822 93.70489844 5.61863613 96.70122284 C8.73557022 99.71006033 10.31491779 99.62543822 14.60302734 99.62641239 C15.60091656 99.6368638 15.60091656 99.6368638 16.61896515 99.64752635 C18.8585367 99.66483553 21.09639313 99.64637359 23.3359375 99.62818909 C24.95346871 99.63323194 26.57099434 99.64045874 28.18850708 99.64968723 C32.64135088 99.66867387 37.09364797 99.65633991 41.54647827 99.6389643 C46.34546859 99.62562736 51.14437695 99.64101414 55.94335938 99.65278625 C65.34769317 99.67119473 74.75181961 99.66262916 84.156147 99.64469803 C91.79714679 99.63068973 99.43809017 99.62677541 107.07910156 99.6301403 C108.16534632 99.63061775 109.25159107 99.63109519 110.37075233 99.6315871 C112.57722729 99.6326134 114.78370223 99.63366875 116.99017715 99.63475286 C136.51432634 99.64332642 156.03837522 99.62662367 175.5625 99.59692383 C194.5208762 99.56808486 213.47910788 99.56100205 232.4375 99.57641602 C253.06682527 99.59316548 273.69608189 99.5972252 294.32540894 99.57970566 C296.52390543 99.57786121 298.72240193 99.57602648 300.92089844 99.57420158 C302.00268686 99.57328949 303.08447529 99.5723774 304.19904518 99.57143768 C311.83355489 99.56582447 319.46803116 99.56914675 327.10253906 99.57574654 C336.40261825 99.58346674 345.70255502 99.57677461 355.00260544 99.5515715 C359.75042467 99.53904589 364.49802183 99.53296687 369.24584961 99.54411316 C373.58839111 99.5541157 377.93048869 99.54578164 382.27297592 99.52253198 C383.84760679 99.51735038 385.42227708 99.51897441 386.99689102 99.52792663 C389.13078918 99.53905342 391.26316831 99.52576633 393.39697266 99.50615788 C394.58408844 99.50496639 395.77120422 99.50377491 396.99429321 99.50254732 C400.6423978 98.89259255 401.82960672 97.95475243 404 95 C404.38943057 92.07566061 404.53727596 89.52972686 404.50170898 86.60717773 C404.50711197 85.76285187 404.51251495 84.918526 404.51808167 84.0486145 C404.53058129 81.25991685 404.51407139 78.47224902 404.49609375 75.68359375 C404.4962487 73.74593552 404.49773693 71.80827698 404.50050354 69.87062073 C404.50188804 65.81114999 404.48931981 61.75203235 404.46655273 57.69262695 C404.43814907 52.48467706 404.4409099 47.27731311 404.45364285 42.06931973 C404.46059121 38.06906615 404.4528207 34.06894846 404.44038582 30.06871223 C404.43586445 28.14813826 404.43554048 26.22754973 404.43945122 24.30697441 C404.44235567 21.62548687 404.42589417 18.94481261 404.40405273 16.26342773 C404.40855438 15.46698349 404.41305603 14.67053925 404.41769409 13.84996033 C404.42156503 9.86869365 404.42156503 9.86869365 402.88289547 6.29630125 C400.08918972 4.37294209 397.85718811 4.62385163 394.48599243 4.62247658 C393.81821046 4.61811626 393.15042848 4.61375593 392.46241069 4.60926348 C390.20862434 4.59825234 387.95544278 4.60875594 385.70166016 4.61904907 C384.07603452 4.61559481 382.45041122 4.61083181 380.82479286 4.60486734 C376.3450794 4.59229581 371.86555665 4.59855554 367.38584232 4.60782599 C362.5596033 4.61459107 357.73339794 4.60414792 352.90716553 4.59588623 C343.44759902 4.58251945 333.98810376 4.58543972 324.52853441 4.59412415 C316.84317469 4.60088873 309.15783499 4.60182274 301.47247314 4.5985527 C299.83414361 4.59786316 299.83414361 4.59786316 298.16271651 4.59715968 C295.9441603 4.59620054 293.72560409 4.5952279 291.50704789 4.5942419 C270.68482604 4.58567938 249.86264376 4.59553565 229.0404284 4.611643 C211.1590939 4.62504696 193.27781782 4.62271911 175.39648438 4.60888672 C154.65072606 4.59284611 133.90500246 4.58650344 113.15923882 4.59572351 C110.94866817 4.5966792 108.73809751 4.59762231 106.52752686 4.5985527 C105.43977451 4.59901553 104.35202216 4.59947836 103.23130763 4.59995521 C95.5517593 4.60254966 87.87223292 4.59816431 80.19268799 4.59111404 C70.83878617 4.5827157 61.48495992 4.58494399 52.1310668 4.60095628 C47.35505354 4.6088615 42.57916643 4.61189244 37.80315399 4.60200882 C33.43602999 4.59310779 29.06914977 4.59791837 24.70204806 4.61394148 C23.11730592 4.61730887 21.53254342 4.61555164 19.94781423 4.60831411 C17.80291414 4.59926528 15.65886242 4.60847162 13.51400757 4.62247658 C11.72283792 4.62320716 11.72283792 4.62320716 9.89548302 4.62395251 C7.02246341 4.77274686 7.02246341 4.77274686 5.11710453 6.29909456 Z " fill="#F5F5F5" transform="translate(0,0)"/>
<path d="M0 0 C2.536875 -0.061875 5.07375 -0.12375 7.6875 -0.1875 C8.47729248 -0.21481201 9.26708496 -0.24212402 10.08081055 -0.27026367 C14.60318145 -0.32344113 17.43303549 0.18325747 21 3 C22.71535658 6.43071316 22.4006478 10.24058819 22 14 C20.5 16.5625 20.5 16.5625 19 18 C20.32 20.64 21.64 23.28 23 26 C20.03 26 17.06 26 14 26 C13.566875 25.030625 13.13375 24.06125 12.6875 23.0625 C11.2985139 19.72268235 11.2985139 19.72268235 8 19 C8 21.31 8 23.62 8 26 C5.36 26 2.72 26 0 26 C0 17.42 0 8.84 0 0 Z " fill="#0A0A0A" transform="translate(374,37)"/>
<path d="M0 0 C2.536875 -0.061875 5.07375 -0.12375 7.6875 -0.1875 C8.47729248 -0.21481201 9.26708496 -0.24212402 10.08081055 -0.27026367 C14.60318145 -0.32344113 17.43303549 0.18325747 21 3 C22.58721791 6.17443582 22.4213259 9.5424525 22 13 C21.443125 13.86625 20.88625 14.7325 20.3125 15.625 C19.879375 16.40875 19.44625 17.1925 19 18 C20.22504725 21.2003264 20.22504725 21.2003264 22 24 C22 24.66 22 25.32 22 26 C16.66912345 26.43695709 16.66912345 26.43695709 14 26 C11.97170628 23.59140121 11 22.16955691 11 19 C10.01 19 9.02 19 8 19 C8 21.31 8 23.62 8 26 C5.36 26 2.72 26 0 26 C0 17.42 0 8.84 0 0 Z " fill="#050505" transform="translate(238,37)"/>
<path d="M0 0 C2.64 0 5.28 0 8 0 C8 2.97 8 5.94 8 9 C9.32 8.67 10.64 8.34 12 8 C13.13070444 6.15272433 13.13070444 6.15272433 13.75 3.9375 C14.1625 2.638125 14.575 1.33875 15 0 C17.97 0 20.94 0 24 0 C23.42378906 1.19496094 23.42378906 1.19496094 22.8359375 2.4140625 C22.11277344 4.00347656 22.11277344 4.00347656 21.375 5.625 C20.88773437 6.66914062 20.40046875 7.71328125 19.8984375 8.7890625 C18.44119291 13.99712796 20.74262666 17.7690782 23.125 22.375 C23.74375 23.57125 24.3625 24.7675 25 26 C22.03 26 19.06 26 16 26 C15.67386719 25.36191406 15.34773438 24.72382812 15.01171875 24.06640625 C14.57472656 23.24011719 14.13773437 22.41382812 13.6875 21.5625 C13.04361328 20.32693359 13.04361328 20.32693359 12.38671875 19.06640625 C11.09979113 16.69352356 11.09979113 16.69352356 8 16 C8 19.3 8 22.6 8 26 C5.36 26 2.72 26 0 26 C0 17.42 0 8.84 0 0 Z " fill="#090909" transform="translate(323,37)"/>
<path d="M0 0 C3.47324666 2.07892341 5.56843406 3.56163546 7.84765625 6.98046875 C7.84765625 7.97046875 7.84765625 8.96046875 7.84765625 9.98046875 C0.26707373 10.35328428 0.26707373 10.35328428 -1.83984375 8.48046875 C-2.27296875 7.98546875 -2.70609375 7.49046875 -3.15234375 6.98046875 C-5.69465222 6.56367578 -5.69465222 6.56367578 -8.15234375 6.98046875 C-10.32262295 8.73920515 -10.32262295 8.73920515 -10.3828125 10.890625 C-10.68988407 14.74732826 -10.68988407 14.74732826 -9.15234375 17.98046875 C-5.69412973 18.23050839 -5.69412973 18.23050839 -2.15234375 17.98046875 C-1.49234375 17.32046875 -0.83234375 16.66046875 -0.15234375 15.98046875 C2.5360501 15.71054969 5.13907561 15.89309518 7.84765625 15.98046875 C7.00381414 19.69337401 6.16151176 21.67466082 3.41015625 24.35546875 C-1.52886564 26.60835593 -5.80761409 26.64142005 -11.15234375 25.98046875 C-14.74156906 24.63450926 -15.79861657 23.49276329 -17.96484375 20.35546875 C-19.4731151 16.0688028 -19.8691147 12.47438097 -19.15234375 7.98046875 C-15.55376641 0.50650044 -8.07740105 -3.82613734 0 0 Z " fill="#090909" transform="translate(311.15234375,37.01953125)"/>
<path d="M0 0 C2.64 0 5.28 0 8 0 C10.87443461 5.3066485 13.12870097 10.73498833 15.25 16.375 C15.52021973 17.08914062 15.79043945 17.80328125 16.06884766 18.5390625 C18 23.74510149 18 23.74510149 18 26 C15.36 26 12.72 26 10 26 C9.67 24.68 9.34 23.36 9 22 C6.03 22.33 3.06 22.66 0 23 C-0.33 23.99 -0.66 24.98 -1 26 C-3.64 26 -6.28 26 -9 26 C-8.38443385 20.11792344 -6.17339219 15.03902565 -3.9375 9.625 C-3.56044922 8.69816406 -3.18339844 7.77132812 -2.79492188 6.81640625 C-1.86873604 4.54197521 -0.93697332 2.27000333 0 0 Z " fill="#070707" transform="translate(272,37)"/>
<path d="M0 0 C5.94 0 11.88 0 18 0 C18 1.98 18 3.96 18 6 C14.37 6 10.74 6 7 6 C7 7.32 7 8.64 7 10 C10.3 10 13.6 10 17 10 C17 11.98 17 13.96 17 16 C13.7 16 10.4 16 7 16 C7 17.32 7 18.64 7 20 C10.63 20 14.26 20 18 20 C18 21.98 18 23.96 18 26 C12.06 26 6.12 26 0 26 C0 17.42 0 8.84 0 0 Z " fill="#060606" transform="translate(352,37)"/>
<path d="M0 0 C13 0 13 0 18 4 C18.92613435 7.09437829 18.69138518 9.85995896 18 13 C16.125 15.5625 16.125 15.5625 13 17 C9.63717934 17.30291056 6.36524145 17.23524018 3 17 C3 19.97 3 22.94 3 26 C2.01 26 1.02 26 0 26 C0 17.42 0 8.84 0 0 Z " fill="#F6F6F6" transform="translate(72,37)"/>
<path d="M0 0 C7.59 0 15.18 0 23 0 C23 2.31 23 4.62 23 7 C20.36 7 17.72 7 15 7 C15 13.27 15 19.54 15 26 C12.69 26 10.38 26 8 26 C8 19.73 8 13.46 8 7 C5.36 7 2.72 7 0 7 C0 4.69 0 2.38 0 0 Z " fill="#020202" transform="translate(211,37)"/>
<path d="M0 0 C1.32 0 2.64 0 4 0 C5.64746094 1.74414062 5.64746094 1.74414062 7.234375 4.15625 C8.09482422 5.44208984 8.09482422 5.44208984 8.97265625 6.75390625 C9.55917969 7.66011719 10.14570313 8.56632812 10.75 9.5 C11.35199219 10.40621094 11.95398438 11.31242187 12.57421875 12.24609375 C14.06180087 14.48927314 15.53250865 16.74362602 17 19 C17.33 12.73 17.66 6.46 18 0 C18.99 0 19.98 0 21 0 C21 8.58 21 17.16 21 26 C17 26 17 26 15.56787109 24.57885742 C15.14070801 23.92763916 14.71354492 23.2764209 14.2734375 22.60546875 C13.7990625 21.89712891 13.3246875 21.18878906 12.8359375 20.45898438 C12.35382813 19.70939453 11.87171875 18.95980469 11.375 18.1875 C10.88515625 17.44951172 10.3953125 16.71152344 9.890625 15.95117188 C8.58157067 13.9750721 7.28969771 11.98875359 6 10 C5.34 9.01 4.68 8.02 4 7 C3.67 13.27 3.34 19.54 3 26 C2.01 26 1.02 26 0 26 C0 17.42 0 8.84 0 0 Z " fill="#F4F4F4" transform="translate(124,37)"/>
<path d="M0 0 C2.5625 1.875 2.5625 1.875 4 4 C4 4.99 4 5.98 4 7 C2.68 6.67 1.36 6.34 0 6 C0 5.34 0 4.68 0 4 C-3.3 4 -6.6 4 -10 4 C-10 5.65 -10 7.3 -10 9 C-9.24074219 9.25394531 -8.48148438 9.50789063 -7.69921875 9.76953125 C-6.70535156 10.11371094 -5.71148437 10.45789062 -4.6875 10.8125 C-3.20830078 11.31716797 -3.20830078 11.31716797 -1.69921875 11.83203125 C0.91565837 12.96350485 2.31788366 13.72914295 4 16 C4.4375 19.5 4.4375 19.5 4 23 C1.16817276 25.78033947 -1.01526919 26.45165201 -4.9375 26.5 C-8.86814648 26.38968644 -9.82661539 26.12830461 -13.125 23.6875 C-15 21 -15 21 -15 18 C-13.125 18.3125 -13.125 18.3125 -11 19 C-10.34 19.99 -9.68 20.98 -9 22 C-7.02252878 22.36297936 -7.02252878 22.36297936 -4.875 22.1875 C-3.59625 22.125625 -2.3175 22.06375 -1 22 C-0.67 20.35 -0.34 18.7 0 17 C-0.91523438 16.67386719 -1.83046875 16.34773438 -2.7734375 16.01171875 C-3.96195313 15.57472656 -5.15046875 15.13773438 -6.375 14.6875 C-7.55835938 14.25824219 -8.74171875 13.82898437 -9.9609375 13.38671875 C-13 12 -13 12 -15 9 C-14.92952218 5.05324222 -14.84252301 2.84252301 -12 0 C-7.78840552 -1.40386483 -4.26278536 -1.18499071 0 0 Z " fill="#E8E8E8" transform="translate(169,37)"/>
<path d="M0 0 C1.32 0 2.64 0 4 0 C6.40285012 2.77760656 8.07702621 5.85331562 10 9 C12.31 6.03 14.62 3.06 17 0 C18.32 0.33 19.64 0.66 21 1 C20.48308594 1.66386719 19.96617188 2.32773437 19.43359375 3.01171875 C18.44552734 4.33623047 18.44552734 4.33623047 17.4375 5.6875 C16.77621094 6.55761719 16.11492188 7.42773438 15.43359375 8.32421875 C13.77911605 10.87225539 13.77911605 10.87225539 14.09375 13.5703125 C15.08250702 16.22120416 16.27466097 18.00236341 18.0625 20.1875 C21 23.80235294 21 23.80235294 21 26 C18.30730091 25.62698541 17.21610375 25.2398855 15.3671875 23.1875 C14.87476563 22.465625 14.38234375 21.74375 13.875 21 C11.89926624 17.97716106 11.89926624 17.97716106 9 16 C8.7525 16.721875 8.505 17.44375 8.25 18.1875 C6.89016326 21.24713266 5.17082246 23.4673738 3 26 C1.68 25.67 0.36 25.34 -1 25 C-0.39929687 24.26394531 0.20140625 23.52789062 0.8203125 22.76953125 C1.58085938 21.79371094 2.34140625 20.81789063 3.125 19.8125 C3.89070313 18.84957031 4.65640625 17.88664062 5.4453125 16.89453125 C7.33331592 14.13791083 7.33331592 14.13791083 6.40625 11.3671875 C5.14814246 9.24937313 3.87524056 7.26456739 2.375 5.3125 C0 2.21676301 0 2.21676301 0 0 Z " fill="#EBEBEB" transform="translate(42,37)"/>
<path d="M0 0 C5.28 0 10.56 0 16 0 C16 0.99 16 1.98 16 3 C11.71 3 7.42 3 3 3 C3 5.64 3 8.28 3 11 C6.96 11 10.92 11 15 11 C15 11.99 15 12.98 15 14 C11.04 14 7.08 14 3 14 C3 16.97 3 19.94 3 23 C7.29 23 11.58 23 16 23 C16 23.99 16 24.98 16 26 C10.72 26 5.44 26 0 26 C0 17.42 0 8.84 0 0 Z " fill="#F3F3F3" transform="translate(183,37)"/>
<path d="M0 0 C5.28 0 10.56 0 16 0 C16 0.99 16 1.98 16 3 C11.71 3 7.42 3 3 3 C3 5.64 3 8.28 3 11 C6.96 11 10.92 11 15 11 C15 11.99 15 12.98 15 14 C11.04 14 7.08 14 3 14 C3 16.97 3 19.94 3 23 C7.29 23 11.58 23 16 23 C16 23.99 16 24.98 16 26 C10.72 26 5.44 26 0 26 C0 17.42 0 8.84 0 0 Z " fill="#F3F3F3" transform="translate(99,37)"/>
<path d="M0 0 C5.28 0 10.56 0 16 0 C16 0.99 16 1.98 16 3 C11.71 3 7.42 3 3 3 C3 5.64 3 8.28 3 11 C6.96 11 10.92 11 15 11 C15 11.99 15 12.98 15 14 C11.04 14 7.08 14 3 14 C3 16.97 3 19.94 3 23 C7.29 23 11.58 23 16 23 C16 23.99 16 24.98 16 26 C10.72 26 5.44 26 0 26 C0 17.42 0 8.84 0 0 Z " fill="#F8F8F8" transform="translate(18,37)"/>
<path d="M0 0 C1.423125 -0.061875 2.84625 -0.12375 4.3125 -0.1875 C5.51326172 -0.23970703 5.51326172 -0.23970703 6.73828125 -0.29296875 C9 0 9 0 10.8046875 1.28515625 C12 3 12 3 11.8125 6.625 C11.544375 7.73875 11.27625 8.8525 11 10 C7.57067929 11.71466036 3.78283935 11.05404056 0 11 C0 7.37 0 3.74 0 0 Z " fill="#060606" transform="translate(75,40)"/>
<path d="M0 0 C2.875 -0.125 2.875 -0.125 6 0 C6.66 0.66 7.32 1.32 8 2 C7.46428571 5.53571429 7.46428571 5.53571429 6 7 C4.00041636 7.04080783 1.99954746 7.04254356 0 7 C0 4.69 0 2.38 0 0 Z " fill="#D5D5D5" transform="translate(245,43)"/>
<path d="M0 0 C0 4.29 0 8.58 0 13 C-0.66 13 -1.32 13 -2 13 C-3.32 10.36 -4.64 7.72 -6 5 C-1.125 0 -1.125 0 0 0 Z " fill="#F5F5F5" transform="translate(398,49)"/>
<path d="M0 0 C2.31 0.33 4.62 0.66 7 1 C6.67 2.65 6.34 4.3 6 6 C4.02 6 2.04 6 0 6 C0 4.02 0 2.04 0 0 Z " fill="#F4F4F4" transform="translate(382,43)"/>
<path d="M0 0 C2.5654594 2.5654594 2.54046087 4.47686668 3 8 C1.35 8 -0.3 8 -2 8 C-1.125 2.25 -1.125 2.25 0 0 Z " fill="#D5D5D5" transform="translate(276,46)"/>
</svg>
